<svg xmlns="http://www.w3.org/2000/svg" xmlns:xlink="http://www.w3.org/1999/xlink" width="22.447" height="20.415" viewBox="0 0 22.447 20.415">
  <defs>
    <clipPath id="clip-path">
      <rect id="Rectangle_982" data-name="Rectangle 982" width="22.447" height="20.415" fill="none"/>
    </clipPath>
  </defs>
  <g id="Group_241" data-name="Group 241" transform="translate(0)">
    <g id="Group_194" data-name="Group 194" transform="translate(0)" clip-path="url(#clip-path)">
      <path id="Path_113" data-name="Path 113" d="M48.481,3.915a1.033,1.033,0,0,1-1.028-.985,1.035,1.035,0,0,1,.265-.747L49.372.341A1.025,1.025,0,0,1,50.826.268,1.043,1.043,0,0,1,50.9,1.732L49.245,3.574a1.029,1.029,0,0,1-.764.341M50.135.339a.693.693,0,0,0-.514.23L47.967,2.41a.7.7,0,0,0,.049.985.69.69,0,0,0,.979-.049L50.649,1.5A.7.7,0,0,0,50.6.519a.688.688,0,0,0-.464-.18" transform="translate(-40.398)" fill="#404040"/>
      <path id="Path_114" data-name="Path 114" d="M18.718,20.415H3.728A1.523,1.523,0,0,1,2.213,18.9l-1.5-9.1H.449A.451.451,0,0,1,0,9.356V7.08a.451.451,0,0,1,.449-.452H3.69L7.054,2.883a1.029,1.029,0,0,1,.265-.7L8.973.341A1.025,1.025,0,0,1,10.428.268,1.043,1.043,0,0,1,10.5,1.732L8.847,3.574a1.028,1.028,0,0,1-.761.34L5.647,6.627H16.678L14.24,3.914a1.027,1.027,0,0,1-.761-.34L11.824,1.732A1.043,1.043,0,0,1,11.9.268a1.025,1.025,0,0,1,1.454.073l1.654,1.841a1.03,1.03,0,0,1,.265.7l3.364,3.744H22a.451.451,0,0,1,.449.452V9.356A.451.451,0,0,1,22,9.808H21.73l-1.5,9.1a1.523,1.523,0,0,1-1.516,1.512M1.034,9.662,2.55,18.875v.014a1.184,1.184,0,0,0,1.179,1.187h14.99A1.184,1.184,0,0,0,19.9,18.889l0-.028,1.513-9.2s0,0,0-.006l0-.188H22a.113.113,0,0,0,.112-.113V7.08A.113.113,0,0,0,22,6.966H18.486L14.927,3.005l.006-.073a.693.693,0,0,0-.176-.522L13.1.569a.69.69,0,0,0-.979-.049.7.7,0,0,0-.049.985l1.654,1.841a.693.693,0,0,0,.57.226l.083-.007,3.056,3.4H4.888l3.056-3.4.083.007a.694.694,0,0,0,.57-.226L10.251,1.5A.7.7,0,0,0,10.2.519a.689.689,0,0,0-.979.049L7.569,2.41a.694.694,0,0,0-.176.522l.006.073L3.839,6.966H.449a.113.113,0,0,0-.112.113V9.356a.113.113,0,0,0,.112.113h.59l0,.188v.006" transform="translate(0 0)" fill="#404040"/>
      <path id="Path_115" data-name="Path 115" d="M15.938,9.281a1.142,1.142,0,0,1-.77-.3,1.163,1.163,0,0,1-.081-1.633,1.143,1.143,0,0,1,.887-.379l3.673-4.088a1.028,1.028,0,0,1,.265-.7L21.565.341A1.025,1.025,0,0,1,23.02.268a1.043,1.043,0,0,1,.073,1.464L21.438,3.574a1.028,1.028,0,0,1-.761.34L17.069,7.93a1.159,1.159,0,0,1-.28.971,1.147,1.147,0,0,1-.852.38m0-1.972a.808.808,0,0,0-.6.268.822.822,0,0,0,.057,1.154.807.807,0,0,0,1.146-.058.82.82,0,0,0,.184-.751L16.7,7.834l3.835-4.268.083.007a.694.694,0,0,0,.57-.226L22.843,1.5a.7.7,0,0,0-.049-.985.689.689,0,0,0-.979.049L20.161,2.41a.693.693,0,0,0-.176.522l.006.073-3.88,4.318-.085-.009a.826.826,0,0,0-.088,0" transform="translate(-12.592)" fill="#404040"/>
      <path id="Path_116" data-name="Path 116" d="M85.185,9.281a1.147,1.147,0,0,1-.852-.38,1.16,1.16,0,0,1-.28-.971L80.446,3.914a1.028,1.028,0,0,1-.761-.34L78.03,1.732A1.043,1.043,0,0,1,78.1.268a1.024,1.024,0,0,1,1.454.073l1.654,1.841a1.03,1.03,0,0,1,.265.7l3.672,4.088a1.144,1.144,0,0,1,.887.379,1.163,1.163,0,0,1-.081,1.633,1.141,1.141,0,0,1-.77.3m-4.6-5.715,3.835,4.268-.022.088a.82.82,0,0,0,.184.751.807.807,0,0,0,1.146.058A.816.816,0,0,0,85.1,7.314l-.085.009-3.88-4.318.006-.073a.694.694,0,0,0-.176-.523L79.308.569a.689.689,0,0,0-.979-.049.7.7,0,0,0-.049.985l1.654,1.841a.692.692,0,0,0,.57.226Z" transform="translate(-66.206)" fill="#404040"/>
      <path id="Path_117" data-name="Path 117" d="M80.448,3.915h0a1.029,1.029,0,0,1-.764-.341L78.03,1.732A1.043,1.043,0,0,1,78.1.268a1.025,1.025,0,0,1,1.454.073l1.654,1.841a1.042,1.042,0,0,1-.073,1.464,1.024,1.024,0,0,1-.69.268M78.793.339a.689.689,0,0,0-.465.18.7.7,0,0,0-.049.985l1.654,1.841a.692.692,0,0,0,.514.23h0a.689.689,0,0,0,.465-.18.7.7,0,0,0,.049-.985L79.307.569a.692.692,0,0,0-.514-.23" transform="translate(-66.205 0)" fill="#404040"/>
      <rect id="Rectangle_981" data-name="Rectangle 981" width="20.784" height="0.339" transform="translate(0.866 9.469)" fill="#404040"/>
      <path id="Path_118" data-name="Path 118" d="M33.846,81.361h-15.5a.848.848,0,0,1,0-1.7h15.5a.848.848,0,0,1,0,1.7M18.349,80a.509.509,0,0,0,0,1.018h15.5a.509.509,0,0,0,0-1.018Z" transform="translate(-14.905 -67.742)" fill="#404040"/>
      <path id="Path_119" data-name="Path 119" d="M36.993,98.878H22.7a.8.8,0,0,1,0-1.591H36.993a.8.8,0,0,1,0,1.591M22.7,97.626a.456.456,0,0,0,0,.912H36.993a.456.456,0,0,0,0-.912Z" transform="translate(-18.654 -82.726)" fill="#404040"/>
      <path id="Path_120" data-name="Path 120" d="M40.2,114.409H27.129a.742.742,0,0,1,0-1.484H40.2a.742.742,0,0,1,0,1.484m-13.067-1.144a.4.4,0,0,0,0,.8H40.2a.4.4,0,0,0,0-.8Z" transform="translate(-22.469 -96.024)" fill="#404040"/>
    </g>
  </g>
</svg>
