<svg xmlns="http://www.w3.org/2000/svg" xmlns:xlink="http://www.w3.org/1999/xlink" width="85.74" height="83.166" viewBox="0 0 85.74 83.166">
  <defs>
    <clipPath id="clip-path">
      <rect id="Rectangle_1059" data-name="Rectangle 1059" width="85.74" height="83.166" fill="#5f5e5e"/>
    </clipPath>
  </defs>
  <g id="Group_239" data-name="Group 239" clip-path="url(#clip-path)">
    <path id="Path_297" data-name="Path 297" d="M42.032,83.155a38.308,38.308,0,0,1-11.817-1.793,42.755,42.755,0,0,1-18.735-11.42A41.741,41.741,0,0,1,3.344,57.818,39.593,39.593,0,0,1,.568,48.531,43.455,43.455,0,0,1,.343,36.02a36.062,36.062,0,0,1,2.433-9.3A41.687,41.687,0,0,1,13.631,11.138,43.588,43.588,0,0,1,46.381.128a43.349,43.349,0,0,1,30,15.5,40.73,40.73,0,0,1-1.646,53.795,41.431,41.431,0,0,1-11.469,8.753,43.928,43.928,0,0,1-21.232,4.976m1.658-.6c1.153-.089,3.2-.072,5.244-.385a44.419,44.419,0,0,0,12.774-3.892A41.611,41.611,0,0,0,75.8,67.273a39.832,39.832,0,0,0,4.249-45.146,41.114,41.114,0,0,0-14.4-15.068,42.747,42.747,0,0,0-9.283-4.318A41.18,41.18,0,0,0,47.455.8,43.462,43.462,0,0,0,18.312,8.2a41.638,41.638,0,0,0-8.51,7.84A39.642,39.642,0,0,0,.852,36.825,39.253,39.253,0,0,0,2.065,52.343a40.3,40.3,0,0,0,8.427,15.621,42,42,0,0,0,21.971,13.4,40.323,40.323,0,0,0,11.227,1.2" transform="translate(0.001 -0.001)" fill="#5f5e5e"/>
    <path id="Path_298" data-name="Path 298" d="M107.609,74.159a29.918,29.918,0,0,1,21.831,9.512,27.62,27.62,0,0,1,6.135,10.212,26.445,26.445,0,0,1,1.388,11.318,28.9,28.9,0,0,1-2.545,9.327,28.59,28.59,0,0,1-9.856,11.608,29.429,29.429,0,0,1-12.971,4.995,29.057,29.057,0,0,1-5.875.248,30.119,30.119,0,0,1-10.165-2.431,29.663,29.663,0,0,1-10.861-8.055,27.959,27.959,0,0,1-6.339-22.258,26.9,26.9,0,0,1,3.454-9.839,28.608,28.608,0,0,1,8.808-9.416A29.316,29.316,0,0,1,103.351,74.5a39.518,39.518,0,0,1,4.258-.337m-.138.567A30.285,30.285,0,0,0,89.72,80.78,27.517,27.517,0,0,0,78.85,99.466a26.091,26.091,0,0,0,.767,10.435,26.83,26.83,0,0,0,5.25,10.224,29.34,29.34,0,0,0,35.883,7.557,27.655,27.655,0,0,0,13.383-14,26.223,26.223,0,0,0,2.15-13.406A27.029,27.029,0,0,0,130.5,85.846C124.564,78.465,116.744,75,107.471,74.726" transform="translate(-64.676 -61.216)" fill="#5f5e5e"/>
    <path id="Path_299" data-name="Path 299" d="M231.41,20.228a2.839,2.839,0,0,1,2.552.612,1.894,1.894,0,0,1-.281,2.94c-.521.375-.491.644-.191,1.09.289.43.541.885.8,1.333.109.186.344.414.055.583a.481.481,0,0,1-.668-.208c-.351-.593-.692-1.191-1.037-1.788-.493-.853-1.287-.419-1.927-.388-.567.027-.293.637-.324,1-.029.345.015.7.015,1.043,0,.236-.011.507-.32.514s-.331-.27-.345-.5c-.052-.926-.1-1.852-.134-2.779-.027-.84.017-1.685-.049-2.521-.058-.735.212-1.007.911-.933a8.993,8.993,0,0,0,.938.005m.286.543c-1.383.029-1.383.029-1.362,1.285.031,1.922.1,1.978,2.006,1.652.971-.166,1.55-.781,1.486-1.579a1.593,1.593,0,0,0-1.7-1.358c-.142,0-.284,0-.426,0" transform="translate(-190.226 -16.664)" fill="#5f5e5e"/>
    <path id="Path_300" data-name="Path 300" d="M237.265,421c-.053,1.087-.11,2.016-.141,2.946-.015.45-.146.714-.653.675-.825-.062-1.656-.056-2.478-.144a1.883,1.883,0,0,1-1.651-1.436,1.85,1.85,0,0,1,.838-2.179c.548-.317.6-.555.237-1.063a7.762,7.762,0,0,1-.689-1.39c-.088-.2-.251-.462.055-.6a.42.42,0,0,1,.56.26c.292.595.609,1.177.891,1.777.424.9,1.248.539,1.889.566.656.027.384-.64.445-1.022.055-.342.035-.7.057-1.044.016-.247.074-.478.389-.451.3.025.244.28.246.466.009.931,0,1.861,0,2.635m-.791,1.346c-.154-.356.384-1.045-.295-1.212a3.789,3.789,0,0,0-2.357.043,1.451,1.451,0,0,0-.366,2.376,2.07,2.07,0,0,0,1.366.4c1.629-.024,1.563.314,1.652-1.606" transform="translate(-192.465 -344.859)" fill="#5f5e5e"/>
    <path id="Path_301" data-name="Path 301" d="M394.321,100.177a3.584,3.584,0,0,1,7.115-.617c.03.282.208.72-.259.778-.435.054-.351-.386-.366-.642a2.736,2.736,0,0,0-2.594-2.427,2.906,2.906,0,0,0-1.515,5.524c.587.321.825-.166,1.174-.395.444-.292.169-.568-.049-.853-.128-.168-.361-.385-.094-.594.217-.17.41-.008.592.162.952.89.945,1.107-.1,1.876-1.177.867-2.257.572-3.3-.968a2.62,2.62,0,0,1-.608-1.843" transform="translate(-326.748 -79.731)" fill="#5f5e5e"/>
    <path id="Path_302" data-name="Path 302" d="M73.049,353.339a3.616,3.616,0,0,1-3.581-2.863c-.05-.293-.235-.706.22-.789.43-.079.343.347.4.613a3.01,3.01,0,0,0,2.993,2.438,3.121,3.121,0,0,0,2.826-3.152,3.157,3.157,0,0,0-1.951-2.531c-.556-.161-.817.3-1.126.6-.363.359.056.547.231.773.14.182.361.356.1.579-.237.2-.414.007-.586-.156-.98-.93-.96-1.03.022-1.937a1.473,1.473,0,0,1,2.078-.252,3.7,3.7,0,0,1,1.771,4.139,3.571,3.571,0,0,1-3.389,2.537" transform="translate(-57.5 -285.893)" fill="#5f5e5e"/>
    <path id="Path_303" data-name="Path 303" d="M47.112,310.3c-.314,0-.628.014-.941,0-.27-.016-.637.148-.774-.179-.11-.264.209-.455.363-.641q1.9-2.288,3.836-4.539c.174-.2.325-.7.707-.4.4.318-.056.612-.224.766a1.407,1.407,0,0,0-.222,2.161,2.992,2.992,0,0,1,.345.7c.386.941.94,1.544,2.062,1.2.318-.1.711,0,.694.412-.015.352-.409.2-.637.218-1.736.1-3.472.189-5.209.281v.025m.96-.771c.5,0,.807.007,1.118,0,1.148-.032,1.148-.034.587-1.085-.9-1.691-.908-1.7-2.128-.22-.33.4-1.039.787-.825,1.25.2.424.936-.01,1.249.057" transform="translate(-37.601 -251.312)" fill="#5f5e5e"/>
    <path id="Path_304" data-name="Path 304" d="M355.214,382.292c.025.35.075.871.1,1.393.012.291-.137.558-.426.56-.344,0-.217-.343-.239-.543-.095-.866-.194-1.732-.237-2.6a.722.722,0,0,0-.557-.742c-.882-.328-1.745-.708-2.617-1.063-.2-.083-.519-.111-.394-.429.112-.286.383-.289.659-.17.707.3,1.434.56,2.125.9.651.316.806.1.73-.55-.081-.692-.135-1.387-.181-2.083-.019-.289-.025-.654.384-.629.359.021.285.385.292.625a19.25,19.25,0,0,0,.273,2.682.843.843,0,0,0,.665.764c.778.268,1.535.6,2.295.922.186.078.542.091.4.419a.5.5,0,0,1-.659.256c-.5-.2-1-.423-1.49-.646-1.2-.542-1.2-.545-1.119.939" transform="translate(-290.711 -310.646)" fill="#5f5e5e"/>
    <path id="Path_305" data-name="Path 305" d="M140.87,41.061a2.1,2.1,0,0,1,1.069,4.024c-.127.065-.268.1-.391.173-1.219.686-1.142.483-.5,1.59.2.354.682.959.238,1.2-.594.329-.623-.506-.808-.843-.8-1.462-1.531-2.968-2.3-4.449-.129-.247-.311-.489.044-.638.906-.383,1.689-1.1,2.654-1.061m.181.63c-.8-.011-2.068.646-2.073,1.078a6.609,6.609,0,0,0,1.409,2.342,2.468,2.468,0,0,0,2.121-1.959,1.4,1.4,0,0,0-1.458-1.462" transform="translate(-114.366 -33.893)" fill="#5f5e5e"/>
    <path id="Path_306" data-name="Path 306" d="M101.483,66.043c.055.465.142,1.126.206,1.79.026.269-.026.572-.353.582-.3.009-.3-.291-.323-.52-.085-.866-.18-1.73-.246-2.6a.853.853,0,0,0-.673-.865c-.867-.27-1.712-.615-2.563-.939-.162-.062-.458-.013-.39-.333a.431.431,0,0,1,.47-.3,2.933,2.933,0,0,1,1.028.331c.561.222,1.278.759,1.718.4.384-.313.056-1.137-.049-1.731-.045-.256-.1-.512-.127-.77a.475.475,0,0,1,.427-.553c.348-.044.3.268.324.486.092.748.2,1.494.263,2.245a1.129,1.129,0,0,0,.885,1.116c.843.247,1.667.565,2.5.858.21.074.5.141.325.456a.412.412,0,0,1-.581.169c-.657-.27-1.335-.486-2.009-.711-.872-.291-.9-.266-.831.889" transform="translate(-80.491 -49.966)" fill="#5f5e5e"/>
    <path id="Path_307" data-name="Path 307" d="M323.963,403.586a2.07,2.07,0,0,1,1.328-2.019c.264-.107.529-.213.792-.323.53-.221.673-.559.352-1.083a8.012,8.012,0,0,1-.446-.932c-.108-.242-.233-.53.111-.659.28-.105.382.167.481.374.64,1.347,1.307,2.681,1.908,4.044.669,1.515.64,1.521-.819,2.247a2.661,2.661,0,0,1-2.91.006,1.9,1.9,0,0,1-.8-1.655m2.175,1.422c.728,0,2-.637,2.016-1.006a5.834,5.834,0,0,0-1.325-2.391,2.566,2.566,0,0,0-2.233,1.915,1.471,1.471,0,0,0,1.542,1.481" transform="translate(-268.462 -328.985)" fill="#5f5e5e"/>
    <path id="Path_308" data-name="Path 308" d="M280.577,412.236c.482-.05.7.024.782.4.411,1.806.846,3.606,1.273,5.408.113.478.013.742-.542.832-.924.151-1.831.413-2.749.607-.256.054-.656.236-.725-.153-.065-.368.367-.358.626-.422.716-.175,1.431-.362,2.155-.49.447-.079.584-.3.49-.717-.088-.4-.19-.788-.282-1.182a.565.565,0,0,0-.754-.485c-.643.127-1.291.227-1.936.342-.171.031-.366.079-.431-.137-.078-.254.117-.386.315-.425.559-.112,1.123-.193,1.686-.284s.936-.283.631-.967a4.205,4.205,0,0,1-.17-.672c-.3-1.189-.422-1.223-1.632-.8a10.726,10.726,0,0,1-1.666.341c-.158.028-.363.072-.428-.156s.086-.321.267-.361c1.082-.242,2.166-.478,3.089-.681" transform="translate(-229.716 -340.274)" fill="#5f5e5e"/>
    <path id="Path_309" data-name="Path 309" d="M442.1,223.764c.884,0,1.767.006,2.651,0,.336,0,.637-.01.658.458.046,1.016.112,2.031.157,3.047.01.224.026.535-.279.541-.329.006-.374-.3-.379-.573-.015-.726-.044-1.453-.033-2.179.008-.49-.187-.643-.663-.65-1.874-.028-1.856-.043-1.834,1.9,0,.373.3,1.056-.29,1.071-.491.013-.265-.661-.276-1.021-.055-1.8-.041-1.763-1.807-1.776-.763-.006-1.021.241-.939,1,.074.691.059,1.393.072,2.09,0,.178-.046.392-.241.409-.219.019-.249-.2-.257-.376q-.073-1.567-.131-3.136c-.017-.473.216-.676.682-.669.97.015,1.94,0,2.909,0Z" transform="translate(-363.379 -184.705)" fill="#5f5e5e"/>
    <path id="Path_310" data-name="Path 310" d="M382.886,354.272a.877.877,0,0,1-.245-.107.264.264,0,0,1,.013-.389c.737-.84,1.475-1.68,2.231-2.5.318-.346.632-.124.9.1,1.363,1.131,2.71,2.283,4.084,3.4.495.4.514.723.066,1.181-.657.673-1.27,1.392-1.887,2.1-.138.16-.273.371-.475.227-.25-.179-.1-.417.052-.6.487-.565.959-1.147,1.482-1.676.386-.39.461-.623-.042-1.009-1.784-1.366-1.072-1.43-2.571.1-.285.292-.555,1.081-.967.719-.472-.416.3-.748.543-1.058,1.115-1.44,1.109-1.382-.285-2.522-.532-.435-.813-.277-1.16.129-.391.458-.776.921-1.177,1.369-.169.19-.373.348-.565.525" transform="translate(-317.02 -289.816)" fill="#5f5e5e"/>
    <path id="Path_311" data-name="Path 311" d="M182.121,25.79c-.061-.319.065-.483.383-.543.976-.186,1.884-.643,2.881-.75.234-.025.575-.251.622.149.033.28-.3.356-.567.414-.668.147-1.331.316-1.992.49-.553.146-.682.48-.51,1.043.493,1.617.64,1.689,2.167,1.094.414-.161,1.11-.546,1.273-.045.168.516-.648.29-.97.515a.291.291,0,0,1-.08.029c-1.864.567-1.9.679-1.131,2.5.15.354.342.433.658.327a11.355,11.355,0,0,0,2.132-.592c.214-.12.637-.263.758.067.162.443-.331.385-.551.456-.948.3-1.911.562-2.867.842-.267.078-.494.129-.6-.243-.515-1.833-1.041-3.662-1.562-5.494a2.492,2.492,0,0,1-.045-.258" transform="translate(-150.908 -20.15)" fill="#5f5e5e"/>
    <path id="Path_312" data-name="Path 312" d="M69.291,94.926a.813.813,0,0,0,.633-.407c.389-.5.8-.974,1.21-1.454.1-.123.217-.315.411-.139.162.146.095.317-.018.464-.4.526-.783,1.073-1.222,1.564-.317.354-.244.591.082.841.045.035.087.075.132.11C72,97.054,72,97.054,73.216,95.56c.254-.313.5-.635.758-.944.11-.131.257-.28.429-.13a.329.329,0,0,1,0,.473c-.692.879-1.38,1.761-2.09,2.625-.251.306-.513.1-.745-.077-1.465-1.1-2.924-2.2-4.395-3.295-.426-.316-.54-.606-.152-1.056.639-.741,1.232-1.522,1.853-2.28.128-.157.235-.493.511-.241.216.2.041.448-.094.624-.454.591-.907,1.186-1.4,1.74-.356.4-.355.672.1.972.472.313.917.669,1.307.956" transform="translate(-55.341 -74.741)" fill="#5f5e5e"/>
    <path id="Path_313" data-name="Path 313" d="M27.032,237.859c-.026-.406-.054-.812-.075-1.218-.009-.18.005-.368.241-.376a.255.255,0,0,1,.281.26c.077,1.1.157,2.2.229,3.3.023.351-.2.419-.49.443-1.819.15-3.639.29-5.454.483-.81.086-1.061-.246-1.062-1.026,0-.811-.116-1.621-.172-2.433-.015-.221-.089-.52.238-.555.3-.032.356.235.369.479.035.668.073,1.335.09,2s.3.966.969.861a4.867,4.867,0,0,1,.6-.041c.8-.028,1.23-.344,1.03-1.246a9.254,9.254,0,0,1-.13-1.213c-.022-.253-.114-.6.232-.649.384-.055.322.326.345.563.053.549.093,1.1.113,1.653.017.476.224.695.7.631a1.515,1.515,0,0,1,.171-.007c1.842-.041,1.842-.041,1.782-1.914" transform="translate(-16.998 -195.028)" fill="#5f5e5e"/>
    <path id="Path_314" data-name="Path 314" d="M418.672,146.905c1.026,0,2.052,0,3.078,0,.188,0,.429-.076.543.141s-.063.385-.195.53q-2.174,2.385-4.352,4.766c-.13.143-.271.257-.436.147-.2-.134-.168-.346-.055-.538a.407.407,0,0,1,.112-.13c1.238-.846.733-1.832.217-2.817a2.449,2.449,0,0,1-.288-.53,1.16,1.16,0,0,0-1.5-1,2.714,2.714,0,0,1-.6-.009c-.178-.011-.363-.066-.376-.276-.02-.315.247-.272.426-.274,1.14-.01,2.28-.005,3.42-.005Zm.745.564v.006c-.368,0-.738.024-1.1-.005-.723-.058-.757.3-.511.836.225.493.47.976.7,1.468.21.458.4.441.716.062.415-.505.92-.934,1.328-1.445.183-.229.609-.41.48-.746-.137-.355-.55-.132-.839-.169a6.088,6.088,0,0,0-.764-.007" transform="translate(-343.757 -121.258)" fill="#5f5e5e"/>
    <path id="Path_315" data-name="Path 315" d="M431.873,182.371c-.048-.45.125-.568.552-.421,1.721.591,3.448,1.165,5.174,1.745.294.1.635.342.891.136.316-.254.058-.651,0-.978-.08-.486-.205-.964-.306-1.446-.046-.219-.17-.5.17-.561.216-.039.358.156.415.365.3,1.086.437,2.21.792,3.285.122.368-.163.428-.469.327-1.838-.607-3.679-1.209-5.515-1.822-.268-.089-.556-.3-.8-.094-.263.227-.022.553.028.816.119.625.311,1.236.462,1.855.052.216.005.427-.24.48-.218.047-.3-.142-.333-.312-.23-1.135-.685-2.213-.823-3.375" transform="translate(-357.879 -149.276)" fill="#5f5e5e"/>
    <path id="Path_316" data-name="Path 316" d="M26.014,275.323c-.021-.339.374-.2.647-.128,1.367.378,2.727.785,4.09,1.182a4.578,4.578,0,0,0,.572.168c.492.075,1.134.489,1.427.1.2-.268-.122-.968-.246-1.465-.09-.362-.248-.707-.358-1.065-.052-.168-.066-.355.136-.449.264-.122.39.087.445.268.335,1.105.674,2.21.959,3.329.165.648-.293.471-.614.382-1.832-.512-3.661-1.034-5.492-1.549-.24-.067-.528-.227-.715.02-.175.232.032.48.111.725.185.577.315,1.172.488,1.753.07.234.051.415-.187.487a.309.309,0,0,1-.379-.266,30.483,30.483,0,0,1-.883-3.493" transform="translate(-21.557 -225.872)" fill="#5f5e5e"/>
    <path id="Path_317" data-name="Path 317" d="M280.087,22.652c-1.239-.09-1.226-.087-1.465,1.178-.257,1.363-.541,2.721-.81,4.082-.045.226-.037.514-.362.478-.388-.043-.3-.358-.253-.607.267-1.479.524-2.961.82-4.434.207-1.032.2-1.081-.8-1.233a3.975,3.975,0,0,1-.421-.067c-.168-.045-.383-.134-.364-.312.027-.249.261-.261.472-.222,1.09.2,2.181.4,3.269.606.228.044.636-.043.592.317-.051.42-.454.187-.682.215" transform="translate(-229.076 -17.746)" fill="#5f5e5e"/>
    <path id="Path_318" data-name="Path 318" d="M189.309,419.836c1.5.176,1.5.177,1.892-1.29a36.123,36.123,0,0,1,.937-3.69c.091-.238,0-.706.435-.6.468.118.211.537.149.805-.317,1.376-.637,2.754-1.014,4.114-.274.988-.215,1.151.778,1.365a3.651,3.651,0,0,1,.495.121c.168.062.311.175.231.389-.061.166-.222.176-.36.145-1.191-.264-2.384-.525-3.568-.818-.158-.039-.445-.113-.409-.366.04-.283.3-.184.434-.18" transform="translate(-156.515 -341.943)" fill="#5f5e5e"/>
    <path id="Path_319" data-name="Path 319" d="M440.145,264.587c-1.5-.251-3.223-.495-4.921-.843-.583-.12-.711.113-.8.564-.115.6-.221,1.194-.348,1.787-.043.2-.161.417-.4.35-.221-.062-.24-.25-.184-.492.189-.816.347-1.64.5-2.463.084-.439.247-.637.756-.538,1.785.349,3.58.644,5.371.961a1.829,1.829,0,0,1,.331.085c.2.077.517.076.46.4s-.337.235-.77.193" transform="translate(-359.205 -217.036)" fill="#5f5e5e"/>
    <path id="Path_320" data-name="Path 320" d="M430.112,297.09c-.082.385-.35.288-.594.2-.8-.286-1.606-.572-2.4-.876-.744-.284-1.486-.573-2.215-.892-.589-.257-.964-.129-1.178.508-.175.521-.386,1.03-.6,1.535-.078.184-.206.391-.452.272-.194-.094-.147-.3-.085-.462.347-.885.7-1.771,1.066-2.646.136-.32.41-.242.664-.143q2.745,1.07,5.492,2.136c.174.067.316.131.306.367" transform="translate(-350.142 -243.099)" fill="#5f5e5e"/>
    <path id="Path_321" data-name="Path 321" d="M31.286,170.641c.853.265,1.781.543,2.7.844.81.264,1.613.55,2.417.833.4.14.5-.139.6-.424.205-.6.392-1.213.615-1.809.074-.2.171-.5.474-.374s.173.336.083.574c-.265.7-.487,1.42-.726,2.132-.181.541-.462.8-1.083.585-1.72-.594-3.458-1.133-5.184-1.713-.219-.073-.558-.145-.479-.5.059-.264.315-.178.584-.15" transform="translate(-25.432 -140.067)" fill="#5f5e5e"/>
    <path id="Path_322" data-name="Path 322" d="M29.9,201.824c0,.684-.223,1.282-.224,1.877,0,.974-.509.97-1.206.875-1.691-.23-3.387-.428-5.08-.644-.261-.033-.682.048-.605-.39.068-.39.45-.234.722-.214a41.416,41.416,0,0,1,4.665.56c.591.111,1,.049.989-.732a5.227,5.227,0,0,1,.216-1.284c.067-.276-.142-.793.3-.769s.164.514.219.723" transform="translate(-18.87 -166.001)" fill="#5f5e5e"/>
    <path id="Path_323" data-name="Path 323" d="M421.413,327.134c-.067.405-.315.48-.571.336-1.766-.986-3.523-1.99-5.278-2.995-.167-.1-.374-.2-.219-.471a.308.308,0,0,1,.492-.131c1.709.973,3.423,1.936,5.132,2.91a3.641,3.641,0,0,1,.446.35" transform="translate(-344.142 -267.286)" fill="#5f5e5e"/>
    <path id="Path_324" data-name="Path 324" d="M51.04,143.1c-.121.463-.421.312-.669.191-1.452-.71-2.9-1.433-4.346-2.151-.23-.114-.461-.222-.691-.335s-.66-.181-.514-.545c.164-.408.535-.174.8-.048.694.325,1.376.675,2.066,1.009.943.456,1.893.9,2.832,1.364.217.108.465.221.518.516" transform="translate(-37.116 -115.59)" fill="#5f5e5e"/>
    <path id="Path_325" data-name="Path 325" d="M351.093,63.339c-.309-.026-.482-.173-.481-.5a.409.409,0,0,1,.409-.459.484.484,0,0,1,.538.444c.033.328-.222.43-.465.511" transform="translate(-290.545 -51.496)" fill="#5f5e5e"/>
    <path id="Path_326" data-name="Path 326" d="M150.365,412.895c-.258-.061-.494-.151-.473-.485a.4.4,0,0,1,.458-.391c.276,0,.531.1.538.414s-.276.386-.524.462" transform="translate(-124.212 -340.106)" fill="#5f5e5e"/>
    <path id="Path_327" data-name="Path 327" d="M153.32,127.633a19.169,19.169,0,0,0-15.678,7.783,18.036,18.036,0,0,0-3.353,7.8,17.754,17.754,0,0,0,.308,7.925,18.22,18.22,0,0,0,6.718,10,19.493,19.493,0,0,0,14.332,3.929,18.76,18.76,0,0,0,10.647-4.678c.108-.095.206-.2.316-.291.221-.182.491-.456.735-.157.279.342-.157.5-.33.648a19.918,19.918,0,0,1-16.234,5.029,19.279,19.279,0,0,1-14.37-8.925,18,18,0,0,1-2.629-14.129,18.942,18.942,0,0,1,11.265-13.782,19.979,19.979,0,0,1,13.875-1.013,19.557,19.557,0,0,1,8.286,4.644c.367.341.46.535.037.942q-6.393,6.148-12.747,12.338-2.966,2.874-5.934,5.747c-.556.541-.5.869.158,1.282a8.2,8.2,0,0,0,9.818-.437c.2-.15.421-.552.7-.2.259.323-.108.5-.312.671a8.742,8.742,0,0,1-13.29-2.663,8.066,8.066,0,0,1,3.061-10.665,8.514,8.514,0,0,1,9.943.435.739.739,0,0,0,1.117-.081c.828-.837,1.648-1.687,2.529-2.464.5-.445.318-.675-.078-1.005a13.217,13.217,0,0,0-6.625-2.986,13.568,13.568,0,0,0-11.393,3.239,12.936,12.936,0,0,0-4.407,8.269,13.289,13.289,0,0,0,6.772,13.089,14.032,14.032,0,0,0,15.837-1.559,1.058,1.058,0,0,1,.2-.163c.2-.1.352-.525.616-.247.321.337-.043.563-.266.759a13.539,13.539,0,0,1-6.511,3.246,14.322,14.322,0,0,1-13.33-3.883,13.655,13.655,0,0,1,3.666-22,14.494,14.494,0,0,1,12.112-.436,13.9,13.9,0,0,1,3.8,2.277.675.675,0,0,0,1.091-.052q1.218-1.275,2.526-2.46c.42-.38.372-.634-.012-.974a19.477,19.477,0,0,0-12.968-4.792m.124,11.065a8.261,8.261,0,0,0-4.514,1.267,7.666,7.666,0,0,0-2.48,10.327c.915,1.434.939,1.451,2.147.292q4.745-4.554,9.468-9.132c.68-.658.669-.9-.078-1.361a8,8,0,0,0-4.542-1.392" transform="translate(-110.483 -104.816)" fill="#5f5e5e"/>
  </g>
</svg>
