<svg xmlns="http://www.w3.org/2000/svg" xmlns:xlink="http://www.w3.org/1999/xlink" width="93.98" height="91.158" viewBox="0 0 93.98 91.158">
  <defs>
    <clipPath id="clip-path">
      <rect id="Rectangle_247" data-name="Rectangle 247" width="93.98" height="91.158" fill="#fff"/>
    </clipPath>
  </defs>
  <g id="Group_47" data-name="Group 47" clip-path="url(#clip-path)">
    <path id="Path_28" data-name="Path 28" d="M46.072,91.146A41.99,41.99,0,0,1,33.12,89.181,46.864,46.864,0,0,1,12.584,76.663,45.752,45.752,0,0,1,3.665,63.374,43.4,43.4,0,0,1,.623,53.195,47.631,47.631,0,0,1,.376,39.482,39.528,39.528,0,0,1,3.042,29.294a45.693,45.693,0,0,1,11.9-17.085A47.777,47.777,0,0,1,50.838.141,47.515,47.515,0,0,1,83.72,17.133a44.644,44.644,0,0,1-1.8,58.965,45.413,45.413,0,0,1-12.571,9.595,48.15,48.15,0,0,1-23.273,5.454m1.817-.654c1.264-.1,3.506-.079,5.748-.422a48.688,48.688,0,0,0,14-4.266,45.61,45.61,0,0,0,15.45-12.066,43.66,43.66,0,0,0,4.657-49.485A45.065,45.065,0,0,0,71.957,7.737,46.855,46.855,0,0,0,61.781,3,45.137,45.137,0,0,0,52.016.877a47.639,47.639,0,0,0-31.944,8.11,45.64,45.64,0,0,0-9.328,8.593A43.452,43.452,0,0,0,.934,40.364a43.025,43.025,0,0,0,1.33,17.009A44.168,44.168,0,0,0,11.5,74.5,46.04,46.04,0,0,0,35.583,89.178a44.2,44.2,0,0,0,12.306,1.314" transform="translate(0.001 -0.001)" fill="#fff"/>
    <path id="Path_29" data-name="Path 29" d="M110.45,74.159a32.793,32.793,0,0,1,23.929,10.426A30.275,30.275,0,0,1,141.1,95.778a28.987,28.987,0,0,1,1.521,12.405,31.682,31.682,0,0,1-2.79,10.223,31.338,31.338,0,0,1-10.8,12.724,32.257,32.257,0,0,1-14.217,5.475,31.848,31.848,0,0,1-6.439.271,33.014,33.014,0,0,1-11.142-2.665,32.513,32.513,0,0,1-11.905-8.829,30.646,30.646,0,0,1-6.948-24.4A29.487,29.487,0,0,1,82.166,90.2,31.357,31.357,0,0,1,91.82,79.88a32.133,32.133,0,0,1,13.962-5.352,43.315,43.315,0,0,1,4.667-.369m-.151.622a33.2,33.2,0,0,0-19.457,6.636A30.161,30.161,0,0,0,78.927,101.9a28.6,28.6,0,0,0,.84,11.438,29.409,29.409,0,0,0,5.754,11.206,32.16,32.16,0,0,0,39.332,8.284,30.313,30.313,0,0,0,14.669-15.345,28.743,28.743,0,0,0,2.357-14.694,29.627,29.627,0,0,0-6.335-15.818c-6.51-8.09-15.082-11.892-25.246-12.188" transform="translate(-63.391 -59.972)" fill="#fff"/>
    <path id="Path_30" data-name="Path 30" d="M231.589,20.231c1-.06,2.011-.185,2.8.67a2.076,2.076,0,0,1-.308,3.223c-.571.411-.538.706-.209,1.195.317.471.592.97.88,1.461.12.2.377.454.061.639a.527.527,0,0,1-.733-.228c-.384-.65-.759-1.306-1.136-1.96-.54-.936-1.411-.459-2.112-.425-.621.03-.321.7-.355,1.1-.032.378.016.762.017,1.143,0,.258-.012.556-.35.564s-.363-.3-.378-.55c-.057-1.015-.114-2.03-.147-3.046-.03-.921.019-1.847-.054-2.763-.064-.806.233-1.1,1-1.023a9.857,9.857,0,0,0,1.029.006m.313.6c-1.515.031-1.515.031-1.493,1.409.034,2.107.109,2.168,2.2,1.811,1.064-.182,1.7-.857,1.628-1.731a1.746,1.746,0,0,0-1.867-1.488c-.155,0-.311,0-.467,0" transform="translate(-186.447 -16.326)" fill="#fff"/>
    <path id="Path_31" data-name="Path 31" d="M237.747,421.309c-.059,1.192-.121,2.21-.155,3.229-.016.494-.16.782-.716.74-.9-.068-1.815-.061-2.716-.158a2.064,2.064,0,0,1-1.809-1.574,2.028,2.028,0,0,1,.918-2.388c.6-.347.661-.608.26-1.165a8.509,8.509,0,0,1-.755-1.523c-.1-.216-.275-.507.06-.653a.46.46,0,0,1,.614.285c.321.652.668,1.291.977,1.948.464.988,1.368.591,2.071.62.72.03.421-.7.488-1.12.06-.375.038-.763.062-1.145.017-.271.081-.524.427-.495.328.028.268.306.269.511.01,1.02,0,2.04,0,2.888m-.867,1.475c-.169-.39.421-1.145-.323-1.329a4.153,4.153,0,0,0-2.583.047,1.591,1.591,0,0,0-.4,2.6,2.269,2.269,0,0,0,1.5.437c1.785-.027,1.714.345,1.81-1.76" transform="translate(-188.641 -337.851)" fill="#fff"/>
    <path id="Path_32" data-name="Path 32" d="M394.323,100.522a3.928,3.928,0,0,1,7.8-.677c.033.31.228.789-.284.852-.476.059-.385-.423-.4-.7a3,3,0,0,0-2.843-2.66,3.186,3.186,0,0,0-1.661,6.055c.643.351.9-.182,1.287-.433.487-.32.186-.622-.053-.935-.141-.184-.4-.422-.1-.651.238-.187.449-.009.649.178,1.043.976,1.035,1.214-.108,2.056-1.29.951-2.474.627-3.614-1.061a2.872,2.872,0,0,1-.667-2.021" transform="translate(-320.256 -78.11)" fill="#fff"/>
    <path id="Path_33" data-name="Path 33" d="M73.4,354.012a3.964,3.964,0,0,1-3.926-3.139c-.055-.321-.258-.773.241-.865.471-.086.376.381.434.672a3.3,3.3,0,0,0,3.281,2.672,3.421,3.421,0,0,0,3.1-3.455,3.461,3.461,0,0,0-2.139-2.775c-.609-.177-.9.325-1.234.66-.4.394.062.6.253.848.154.2.4.39.1.635-.26.218-.454.007-.642-.171-1.074-1.02-1.052-1.129.024-2.123a1.614,1.614,0,0,1,2.278-.276,4.054,4.054,0,0,1,1.941,4.537,3.914,3.914,0,0,1-3.715,2.781" transform="translate(-56.358 -280.083)" fill="#fff"/>
    <path id="Path_34" data-name="Path 34" d="M47.279,310.866c-.344,0-.689.016-1.031,0-.3-.018-.7.162-.848-.2-.121-.289.229-.5.4-.7q2.079-2.507,4.2-4.975c.191-.221.357-.766.775-.435.442.349-.061.671-.246.839a1.542,1.542,0,0,0-.243,2.369,3.278,3.278,0,0,1,.378.765c.424,1.031,1.031,1.693,2.26,1.314.349-.107.78.005.761.452-.016.385-.449.224-.7.239-1.9.113-3.806.207-5.709.308v.028m1.052-.845c.543,0,.884.008,1.226,0,1.258-.035,1.258-.037.643-1.19-.988-1.853-.995-1.859-2.333-.241-.362.437-1.139.862-.9,1.37.214.465,1.026-.011,1.369.062" transform="translate(-36.854 -246.205)" fill="#fff"/>
    <path id="Path_35" data-name="Path 35" d="M355.637,382.865c.028.384.082.955.1,1.527.013.319-.15.612-.467.614-.377,0-.238-.376-.262-.6-.1-.949-.213-1.9-.26-2.851a.791.791,0,0,0-.611-.813c-.966-.359-1.912-.776-2.868-1.165-.224-.091-.568-.122-.431-.47.123-.313.42-.316.722-.186.774.333,1.572.614,2.33.982.713.347.883.109.8-.6-.088-.758-.148-1.521-.2-2.283-.021-.317-.027-.717.421-.69.393.023.313.422.32.685a21.1,21.1,0,0,0,.3,2.94.924.924,0,0,0,.728.837c.853.294,1.683.659,2.515,1.01.2.086.594.1.44.459a.549.549,0,0,1-.723.281c-.55-.223-1.093-.463-1.634-.708-1.313-.594-1.312-.6-1.226,1.029" transform="translate(-284.935 -304.334)" fill="#fff"/>
    <path id="Path_36" data-name="Path 36" d="M141.145,41.061a2.3,2.3,0,0,1,1.172,4.411c-.139.071-.293.113-.429.19-1.336.752-1.252.53-.552,1.743.224.388.748,1.051.261,1.32-.651.361-.683-.555-.886-.924-.881-1.6-1.678-3.253-2.523-4.877-.141-.271-.34-.536.048-.7.994-.42,1.852-1.211,2.909-1.163m.2.69c-.882-.012-2.267.708-2.272,1.182a7.244,7.244,0,0,0,1.545,2.567,2.705,2.705,0,0,0,2.325-2.147,1.538,1.538,0,0,0-1.6-1.6" transform="translate(-112.094 -33.204)" fill="#fff"/>
    <path id="Path_37" data-name="Path 37" d="M101.9,66.573c.06.51.155,1.234.226,1.962.028.295-.029.627-.387.638-.329.01-.329-.319-.354-.57-.094-.949-.2-1.9-.27-2.847a.935.935,0,0,0-.738-.948c-.951-.3-1.877-.674-2.809-1.029-.178-.068-.5-.014-.427-.365a.472.472,0,0,1,.516-.332,3.215,3.215,0,0,1,1.127.363c.614.243,1.4.832,1.883.439.421-.343.061-1.247-.054-1.9-.05-.281-.114-.561-.139-.844a.521.521,0,0,1,.469-.606c.382-.048.326.294.355.533.1.82.214,1.638.288,2.46a1.238,1.238,0,0,0,.97,1.224c.924.271,1.827.62,2.737.94.23.081.546.154.356.5a.452.452,0,0,1-.637.185c-.72-.3-1.463-.533-2.2-.78-.956-.32-.985-.291-.911.975" transform="translate(-78.892 -48.951)" fill="#fff"/>
    <path id="Path_38" data-name="Path 38" d="M323.964,404.07a2.269,2.269,0,0,1,1.456-2.213c.29-.118.58-.234.868-.354.581-.242.737-.612.386-1.187a8.782,8.782,0,0,1-.489-1.022c-.118-.266-.255-.581.121-.723.307-.115.419.183.527.41.7,1.476,1.432,2.938,2.092,4.433.733,1.661.7,1.667-.9,2.463a2.917,2.917,0,0,1-3.19.006,2.085,2.085,0,0,1-.873-1.814m2.384,1.559c.8,0,2.194-.7,2.21-1.1a6.394,6.394,0,0,0-1.453-2.621,2.813,2.813,0,0,0-2.448,2.1,1.612,1.612,0,0,0,1.691,1.624" transform="translate(-263.128 -322.3)" fill="#fff"/>
    <path id="Path_39" data-name="Path 39" d="M280.9,412.238c.528-.055.762.026.857.441.451,1.979.927,3.953,1.4,5.928.124.524.015.813-.594.912-1.013.166-2.007.452-3.013.665-.28.059-.719.259-.794-.168-.071-.4.4-.393.687-.462.784-.192,1.568-.4,2.362-.537.49-.086.64-.329.538-.786-.1-.434-.208-.864-.309-1.3a.619.619,0,0,0-.827-.531c-.7.139-1.415.249-2.122.375-.188.034-.4.087-.473-.15-.085-.279.128-.423.345-.466.612-.123,1.231-.211,1.848-.312s1.026-.31.692-1.06a4.61,4.61,0,0,1-.187-.737c-.332-1.3-.462-1.34-1.789-.876a11.755,11.755,0,0,1-1.826.374c-.174.031-.4.079-.469-.171s.094-.352.293-.4c1.186-.265,2.374-.524,3.386-.747" transform="translate(-225.152 -333.36)" fill="#fff"/>
    <path id="Path_40" data-name="Path 40" d="M442.442,223.764c.969,0,1.937.007,2.906,0,.368,0,.7-.011.721.5.051,1.114.123,2.226.172,3.34.011.246.029.587-.306.593-.361.006-.41-.327-.416-.628-.016-.8-.048-1.593-.036-2.389.008-.537-.205-.7-.727-.712-2.054-.03-2.035-.047-2.011,2.083,0,.409.328,1.157-.318,1.174-.539.014-.29-.724-.3-1.119-.06-1.974-.044-1.932-1.981-1.947-.836-.007-1.119.264-1.029,1.1.081.758.064,1.527.079,2.291,0,.195-.05.43-.264.448-.24.021-.273-.223-.282-.412q-.08-1.718-.144-3.437c-.019-.519.236-.741.748-.733,1.063.016,2.126,0,3.189,0Z" transform="translate(-356.16 -180.952)" fill="#fff"/>
    <path id="Path_41" data-name="Path 41" d="M382.917,354.578a.962.962,0,0,1-.269-.118.29.29,0,0,1,.014-.426c.808-.921,1.617-1.841,2.446-2.742.349-.38.693-.135.99.111,1.494,1.24,2.971,2.5,4.477,3.726.542.441.563.793.072,1.295-.721.737-1.392,1.526-2.068,2.307-.152.175-.3.407-.52.249-.275-.2-.113-.458.057-.656.534-.619,1.051-1.257,1.624-1.837.423-.428.505-.683-.047-1.106-1.955-1.5-1.176-1.568-2.818.114-.312.32-.608,1.185-1.06.788-.518-.456.332-.82.6-1.16,1.222-1.579,1.216-1.515-.312-2.765-.583-.477-.891-.3-1.272.142-.429.5-.851,1.009-1.29,1.5-.186.208-.408.382-.62.576" transform="translate(-310.722 -283.926)" fill="#fff"/>
    <path id="Path_42" data-name="Path 42" d="M182.122,25.923c-.066-.349.071-.529.42-.6,1.07-.2,2.065-.7,3.158-.822.257-.027.63-.275.682.163.036.306-.33.39-.621.454-.732.161-1.459.347-2.184.538-.607.16-.747.526-.559,1.143.541,1.772.7,1.852,2.375,1.2.454-.177,1.217-.6,1.395-.049.184.566-.71.318-1.063.564a.319.319,0,0,1-.088.032c-2.043.622-2.088.744-1.24,2.738.165.388.375.475.721.359A12.446,12.446,0,0,0,187.455,31c.234-.131.7-.289.831.073.178.486-.362.422-.6.5-1.039.334-2.095.616-3.142.922-.292.086-.542.142-.656-.266-.564-2.009-1.141-4.014-1.712-6.022a2.732,2.732,0,0,1-.049-.282" transform="translate(-147.909 -19.741)" fill="#fff"/>
    <path id="Path_43" data-name="Path 43" d="M69.532,95.347a.891.891,0,0,0,.693-.446c.426-.544.878-1.068,1.327-1.594.115-.135.238-.345.451-.152.177.16.1.348-.02.509-.441.576-.858,1.176-1.339,1.715-.347.389-.267.648.09.922.05.038.1.082.145.12,1.625,1.258,1.625,1.258,2.955-.379.279-.343.547-.7.83-1.035.12-.144.282-.306.47-.143a.361.361,0,0,1,0,.518c-.758.964-1.513,1.93-2.29,2.877-.275.335-.562.107-.816-.084-1.606-1.2-3.2-2.417-4.817-3.611-.467-.346-.592-.664-.167-1.157.7-.812,1.351-1.669,2.031-2.5.141-.172.258-.541.56-.264.237.218.045.491-.1.684-.5.648-.994,1.3-1.538,1.907-.39.436-.389.736.107,1.065.518.343,1.006.733,1.433,1.048" transform="translate(-54.242 -73.222)" fill="#fff"/>
    <path id="Path_44" data-name="Path 44" d="M27.658,238.013c-.028-.445-.059-.89-.082-1.335-.01-.2.006-.4.264-.412a.28.28,0,0,1,.309.285c.085,1.207.172,2.413.251,3.621.025.385-.214.459-.537.486-1.994.164-3.989.318-5.978.529-.887.094-1.163-.269-1.164-1.125,0-.889-.127-1.777-.188-2.667-.017-.242-.1-.57.26-.608.33-.035.39.258.4.525.038.732.08,1.464.1,2.2s.334,1.059,1.063.943a5.334,5.334,0,0,1,.655-.045c.873-.03,1.348-.377,1.129-1.366A10.143,10.143,0,0,1,24,237.71c-.024-.278-.125-.657.254-.711.421-.06.353.357.378.617.058.6.1,1.207.124,1.811.019.522.246.762.764.691a1.659,1.659,0,0,1,.187-.007c2.019-.045,2.019-.045,1.953-2.1" transform="translate(-16.661 -191.065)" fill="#fff"/>
    <path id="Path_45" data-name="Path 45" d="M419.042,146.906c1.125,0,2.25,0,3.374,0,.206,0,.47-.084.6.155s-.069.422-.214.581q-2.382,2.615-4.77,5.224c-.142.156-.3.282-.477.161-.219-.147-.184-.379-.06-.59a.446.446,0,0,1,.122-.143c1.357-.928.8-2.008.238-3.088a2.685,2.685,0,0,1-.316-.581,1.271,1.271,0,0,0-1.642-1.1,2.975,2.975,0,0,1-.654-.009c-.2-.012-.4-.073-.413-.3-.022-.346.271-.3.467-.3,1.25-.011,2.5-.006,3.749-.006Zm.817.618v.006c-.4,0-.809.026-1.21-.006-.792-.063-.83.329-.56.916.247.54.515,1.07.762,1.61.23.5.443.484.785.068.455-.554,1.009-1.024,1.455-1.584.2-.251.667-.45.526-.818-.15-.389-.6-.145-.92-.185a6.674,6.674,0,0,0-.837-.007" transform="translate(-336.927 -118.794)" fill="#fff"/>
    <path id="Path_46" data-name="Path 46" d="M431.874,182.518c-.053-.494.137-.622.6-.462,1.887.648,3.78,1.277,5.671,1.912.322.108.7.375.977.149.346-.279.064-.714,0-1.072-.088-.533-.225-1.057-.335-1.585-.05-.24-.187-.547.186-.615.237-.043.392.17.455.4.325,1.191.479,2.423.868,3.6.133.4-.179.469-.514.359-2.015-.666-4.032-1.325-6.045-2-.294-.1-.609-.334-.877-.1-.289.249-.025.606.03.895.13.685.341,1.354.506,2.033.057.237.006.469-.263.527-.239.051-.327-.155-.365-.342-.252-1.244-.751-2.426-.9-3.7" transform="translate(-350.768 -146.243)" fill="#fff"/>
    <path id="Path_47" data-name="Path 47" d="M26.014,275.486c-.023-.372.41-.223.709-.14,1.5.415,2.99.86,4.483,1.3a5.015,5.015,0,0,0,.626.184c.539.083,1.243.536,1.564.111.222-.293-.134-1.061-.27-1.606-.1-.4-.271-.775-.392-1.167-.057-.184-.073-.39.149-.492.289-.133.427.095.488.294.368,1.211.739,2.422,1.051,3.649.181.711-.321.517-.673.418-2.008-.561-4.013-1.134-6.02-1.7-.263-.074-.579-.249-.784.022-.192.254.035.526.122.795.2.632.345,1.284.535,1.921.076.256.055.455-.2.534a.339.339,0,0,1-.415-.292,33.412,33.412,0,0,1-.968-3.829" transform="translate(-21.128 -221.282)" fill="#fff"/>
    <path id="Path_48" data-name="Path 48" d="M280.438,22.763c-1.358-.1-1.344-.1-1.606,1.292-.281,1.494-.593,2.983-.888,4.474-.049.247-.041.563-.4.524-.426-.047-.327-.393-.278-.665.292-1.622.574-3.245.9-4.86.227-1.132.217-1.185-.873-1.352a4.356,4.356,0,0,1-.461-.074c-.184-.049-.42-.147-.4-.341.03-.272.286-.286.517-.244,1.195.22,2.391.434,3.583.664.25.048.7-.047.649.348-.056.46-.5.2-.747.235" transform="translate(-224.525 -17.385)" fill="#fff"/>
    <path id="Path_49" data-name="Path 49" d="M189.351,420.374c1.64.193,1.646.194,2.074-1.414a39.593,39.593,0,0,1,1.028-4.045c.1-.261,0-.773.476-.654.513.13.231.589.164.883-.348,1.509-.7,3.018-1.112,4.509-.3,1.082-.235,1.262.853,1.5a4,4,0,0,1,.542.133c.184.068.34.192.254.427-.067.182-.243.192-.394.159-1.306-.289-2.613-.576-3.911-.9-.173-.043-.488-.124-.448-.4.044-.31.326-.2.476-.2" transform="translate(-153.405 -334.994)" fill="#fff"/>
    <path id="Path_50" data-name="Path 50" d="M440.787,264.747c-1.649-.275-3.533-.543-5.394-.924-.639-.131-.78.124-.875.618-.126.653-.242,1.309-.381,1.959-.047.223-.176.457-.44.383-.242-.068-.263-.275-.2-.539.208-.894.38-1.8.553-2.7.092-.481.271-.7.828-.59,1.956.382,3.924.706,5.887,1.053a2.006,2.006,0,0,1,.363.093c.22.084.567.083.5.435s-.369.258-.844.212" transform="translate(-352.068 -212.626)" fill="#fff"/>
    <path id="Path_51" data-name="Path 51" d="M430.841,297.339c-.089.422-.383.316-.651.221-.88-.313-1.761-.627-2.634-.961-.815-.311-1.629-.628-2.428-.978-.646-.282-1.057-.141-1.292.557-.192.571-.423,1.129-.658,1.683-.085.2-.226.428-.5.3-.213-.1-.161-.332-.093-.507.381-.97.762-1.941,1.169-2.9.149-.35.449-.265.727-.157q3.009,1.173,6.019,2.341c.19.073.347.144.335.4" transform="translate(-343.186 -238.16)" fill="#fff"/>
    <path id="Path_52" data-name="Path 52" d="M31.343,170.733c.935.291,1.952.6,2.961.925.888.29,1.768.6,2.649.914.438.154.548-.153.654-.465.225-.661.43-1.329.674-1.982.082-.218.187-.543.52-.41s.189.368.091.629c-.291.769-.534,1.557-.8,2.337-.2.593-.506.876-1.187.641-1.886-.651-3.791-1.242-5.682-1.878-.24-.081-.611-.159-.525-.546.064-.29.345-.195.64-.164" transform="translate(-24.927 -137.22)" fill="#fff"/>
    <path id="Path_53" data-name="Path 53" d="M30.58,201.894c0,.75-.245,1.4-.245,2.057,0,1.068-.558,1.063-1.322.959-1.854-.253-3.712-.469-5.568-.706-.286-.037-.748.053-.663-.428.075-.428.493-.256.791-.235a45.394,45.394,0,0,1,5.114.614c.648.121,1.1.053,1.084-.8a5.73,5.73,0,0,1,.237-1.408c.073-.3-.155-.869.333-.843s.18.563.24.792" transform="translate(-18.495 -162.628)" fill="#fff"/>
    <path id="Path_54" data-name="Path 54" d="M422,327.454c-.073.444-.345.526-.626.368-1.936-1.081-3.861-2.181-5.786-3.283-.182-.1-.41-.219-.24-.516a.337.337,0,0,1,.539-.143c1.873,1.067,3.752,2.122,5.625,3.189a3.991,3.991,0,0,1,.488.384" transform="translate(-337.305 -261.855)" fill="#fff"/>
    <path id="Path_55" data-name="Path 55" d="M51.641,143.4c-.133.507-.462.342-.733.209-1.592-.778-3.177-1.571-4.764-2.358-.252-.125-.506-.244-.758-.368s-.724-.2-.563-.6c.18-.447.586-.191.881-.053.761.356,1.509.74,2.265,1.106,1.034.5,2.075.984,3.1,1.495.238.118.51.242.567.565" transform="translate(-36.379 -113.241)" fill="#fff"/>
    <path id="Path_56" data-name="Path 56" d="M351.139,63.431c-.339-.029-.528-.19-.527-.543a.448.448,0,0,1,.448-.5.531.531,0,0,1,.589.486c.036.359-.243.471-.51.56" transform="translate(-284.773 -50.45)" fill="#fff"/>
    <path id="Path_57" data-name="Path 57" d="M150.411,412.979c-.283-.066-.541-.166-.518-.532a.436.436,0,0,1,.5-.428c.3,0,.582.109.59.453s-.3.423-.574.507" transform="translate(-121.744 -333.195)" fill="#fff"/>
    <path id="Path_58" data-name="Path 58" d="M155.242,127.7a21.011,21.011,0,0,0-17.185,8.531,19.77,19.77,0,0,0-3.675,8.544,19.46,19.46,0,0,0,.338,8.686,19.971,19.971,0,0,0,7.364,10.958,21.367,21.367,0,0,0,15.71,4.307,20.563,20.563,0,0,0,11.671-5.128c.118-.1.226-.22.347-.319.242-.2.539-.5.806-.172.306.375-.172.544-.362.71a21.832,21.832,0,0,1-17.794,5.513,21.132,21.132,0,0,1-15.751-9.783,19.733,19.733,0,0,1-2.881-15.487,20.763,20.763,0,0,1,12.348-15.106,21.9,21.9,0,0,1,15.208-1.11,21.437,21.437,0,0,1,9.082,5.09c.4.374.5.586.041,1.033q-7.007,6.739-13.972,13.523-3.251,3.151-6.5,6.3c-.609.593-.553.953.173,1.4a8.989,8.989,0,0,0,10.762-.479c.218-.165.461-.605.77-.219.284.354-.119.549-.342.735a9.582,9.582,0,0,1-14.568-2.918,8.841,8.841,0,0,1,3.356-11.689,9.333,9.333,0,0,1,10.9.477.81.81,0,0,0,1.224-.089c.908-.918,1.806-1.849,2.771-2.7.553-.488.348-.74-.085-1.1a14.488,14.488,0,0,0-7.261-3.273,14.872,14.872,0,0,0-12.488,3.55,14.179,14.179,0,0,0-4.83,9.064,14.566,14.566,0,0,0,7.423,14.347,15.381,15.381,0,0,0,17.359-1.709,1.16,1.16,0,0,1,.219-.179c.225-.107.385-.576.675-.271.352.37-.048.617-.292.832a14.84,14.84,0,0,1-7.137,3.558,15.7,15.7,0,0,1-14.611-4.256,14.967,14.967,0,0,1,4.018-24.116,15.886,15.886,0,0,1,13.276-.478,15.234,15.234,0,0,1,4.163,2.5.74.74,0,0,0,1.2-.057q1.335-1.4,2.769-2.7c.461-.417.408-.7-.013-1.068a21.349,21.349,0,0,0-14.214-5.253m.135,12.128a9.055,9.055,0,0,0-4.948,1.389,8.4,8.4,0,0,0-2.718,11.32c1,1.572,1.029,1.59,2.353.32q5.2-4.991,10.378-10.01c.746-.721.733-.982-.086-1.492a8.77,8.77,0,0,0-4.979-1.526" transform="translate(-108.288 -102.687)" fill="#fff"/>
  </g>
</svg>
