<svg id="Group_219" data-name="Group 219" xmlns="http://www.w3.org/2000/svg" xmlns:xlink="http://www.w3.org/1999/xlink" width="58.266" height="33.821" viewBox="0 0 58.266 33.821">
  <defs>
    <clipPath id="clip-path">
      <rect id="Rectangle_1015" data-name="Rectangle 1015" width="58.266" height="33.821" fill="#606060"/>
    </clipPath>
  </defs>
  <g id="Group_218" data-name="Group 218" clip-path="url(#clip-path)">
    <path id="Path_136" data-name="Path 136" d="M12.611,157.256h-.024a5.111,5.111,0,1,0,.024,0m1.019,6.234a1.526,1.526,0,0,1-2.557-1.122,1.639,1.639,0,0,1,.025-.277,1.536,1.536,0,0,1,.248-.593,1.526,1.526,0,0,1,2.752.593,1.565,1.565,0,0,1,.026.277,1.518,1.518,0,0,1-.495,1.122" transform="translate(-6.363 -133.659)" fill="#606060"/>
    <path id="Path_137" data-name="Path 137" d="M4.906,157.257H.6V161.5h.788c0-.017,0-.035.008-.053a5.411,5.411,0,0,1,3.514-4.188" transform="translate(-0.507 -133.66)" fill="#606060"/>
    <path id="Path_138" data-name="Path 138" d="M281.64,157.257a5.112,5.112,0,1,0,5.112,5.112,5.112,5.112,0,0,0-5.112-5.112m1.031,6.234a1.526,1.526,0,0,1-2.558-1.122,1.526,1.526,0,1,1,2.558,1.122" transform="translate(-235.034 -133.66)" fill="#606060"/>
    <path id="Path_139" data-name="Path 139" d="M102.916,52.743c-.021-2.334.043-4.645-.043-6.979-.744-.341-1.5-.683-2.247-1.032-.523-.243-1.045-.49-1.564-.745a1.669,1.669,0,0,1-.2-.092c-1.061-.569-1.027-2-1.432-3.013-.419-1.716-1.111-3.384-1.531-5.1a10.433,10.433,0,0,1-.331-3.336c-3.051-.043-6.082-.021-9.112,0h-.029v.005l-.016-.013V36.2l.015.014c-.01,4.98-.051,9.965,0,14.946H53.793a5.41,5.41,0,0,1,3.514,4.188l.008.053H86.5c.75-2.376,2.612-4.667,5.288-4.817a5.92,5.92,0,0,1,6.336,4.667c1.949.022,3.9.022,5.844.022,0-.814.022-1.649.022-2.462l-1.071-.064M90.458,43.58c-.021-2.27-.065-4.539.021-6.807,1.52,0,3.061-.022,4.581.042.6,2.248,1.327,4.474,1.927,6.743-2.184.043-4.346.022-6.529.022m12.213,9.333c-1.323.045-2.669.045-3.991.022-.023-.8-.023-1.573,0-2.371q1.984-.035,3.968,0c.046.8.046,1.573.023,2.349" transform="translate(-45.721 -27.559)" fill="#606060"/>
    <path id="Path_140" data-name="Path 140" d="M95.012,46.6l-3.218,3.218L88.581,46.6a.607.607,0,0,0-.859.859l3.639,3.647a.61.61,0,0,0,.863,0v0l3.645-3.645a.607.607,0,1,0-.857-.859" transform="translate(-74.408 -39.458)" fill="#606060"/>
    <path id="Path_141" data-name="Path 141" d="M0,0V22.757H39.823V3.818h9.556V0ZM17.385,18.5a7.893,7.893,0,1,1,7.9-7.892,7.9,7.9,0,0,1-7.9,7.892" fill="#606060"/>
  </g>
</svg>
