<svg id="Group_197" data-name="Group 197" xmlns="http://www.w3.org/2000/svg" xmlns:xlink="http://www.w3.org/1999/xlink" width="69.177" height="62.042" viewBox="0 0 69.177 62.042">
  <defs>
    <clipPath id="clip-path">
      <rect id="Rectangle_989" data-name="Rectangle 989" width="69.177" height="62.042" transform="translate(0 0)" fill="none"/>
    </clipPath>
  </defs>
  <g id="Group_196" data-name="Group 196" clip-path="url(#clip-path)">
    <path id="Path_122" data-name="Path 122" d="M6.1,62.042H69.176V34.008H6.1Zm60.611-4.936a2.468,2.468,0,0,0-2.468,2.468c0,.034.009.065.01.1H11.024c0-.033.01-.064.01-.1a2.469,2.469,0,0,0-2.468-2.468c-.033,0-.064.009-.1.01V38.933c.035,0,.066.01.1.01a2.468,2.468,0,0,0,2.468-2.468c0-.034-.009-.065-.01-.1H64.251c0,.034-.01.065-.01.1a2.467,2.467,0,0,0,2.468,2.468c.034,0,.065-.009.1-.01V57.116c-.033,0-.064-.01-.1-.01M44.4,48.024c0,5.18-3.027,9.378-6.762,9.378s-6.761-4.2-6.761-9.378,3.027-9.377,6.761-9.377,6.762,4.2,6.762,9.377" fill="#606060"/>
    <path id="Path_123" data-name="Path 123" d="M35.056,29.649a5.549,5.549,0,0,0-2.923,1.989h9.052a6.5,6.5,0,0,0-6.129-1.989" fill="#606060"/>
    <path id="Path_124" data-name="Path 124" d="M20.384,31.639,60.277,20.951c.007.032.007.064.015.1a2.468,2.468,0,0,0,3.023,1.746c.032-.009.06-.025.092-.035l2.38,8.881h2.454l-3.82-14.252L11.231,31.639Z" fill="#606060"/>
    <path id="Path_125" data-name="Path 125" d="M29.435,19.445a6.459,6.459,0,0,0-2.922,5.645L38.54,21.868c-2.748-2.877-6.417-3.975-9.105-2.423" fill="#606060"/>
    <path id="Path_126" data-name="Path 126" d="M.59,32.037,6.719,30.4,51.546,4.514c.016.03.024.061.04.089a2.469,2.469,0,0,0,3.371.9c.029-.018.052-.04.081-.058l6,10.391L63.4,15.2,54.627,0,0,31.539Z" fill="#606060"/>
  </g>
</svg>
