<svg xmlns="http://www.w3.org/2000/svg" xmlns:xlink="http://www.w3.org/1999/xlink" width="66.332" height="42.158" viewBox="0 0 66.332 42.158">
  <defs>
    <clipPath id="clip-path">
      <rect id="Rectangle_991" data-name="Rectangle 991" width="66.332" height="42.158" transform="translate(0 0)" fill="none"/>
    </clipPath>
  </defs>
  <g id="Group_199" data-name="Group 199" transform="translate(0 0)">
    <g id="Group_198" data-name="Group 198" clip-path="url(#clip-path)">
      <path id="Path_127" data-name="Path 127" d="M59.254,0H7.078A7.087,7.087,0,0,0,0,7.079v28a7.087,7.087,0,0,0,7.078,7.079H59.254a7.087,7.087,0,0,0,7.078-7.079v-28A7.087,7.087,0,0,0,59.254,0M7.078,2H59.254a5.067,5.067,0,0,1,5.02,4.5H2.059A5.067,5.067,0,0,1,7.078,2M59.254,40.158H7.078A5.083,5.083,0,0,1,2,35.079V13.333H64.332V35.079a5.083,5.083,0,0,1-5.078,5.079" fill="#606060"/>
      <path id="Path_128" data-name="Path 128" d="M25.336,29.819A5.184,5.184,0,0,1,23.2,30.2a3.778,3.778,0,0,1-3.994-4.09,4.023,4.023,0,0,1,4.221-4.246,4.335,4.335,0,0,1,1.92.36l-.252.852a3.786,3.786,0,0,0-1.631-.336,3.005,3.005,0,0,0-3.154,3.334,2.937,2.937,0,0,0,3.1,3.25,4.17,4.17,0,0,0,1.7-.336Z" fill="#606060"/>
      <path id="Path_129" data-name="Path 129" d="M28,27.541l-.84,2.542h-1.08L28.828,22h1.26l2.759,8.083H31.732l-.865-2.542Zm2.65-.816L29.861,24.4c-.182-.527-.3-1.007-.42-1.475h-.025c-.119.48-.252.972-.407,1.464l-.793,2.338Z" fill="#606060"/>
      <path id="Path_130" data-name="Path 130" d="M34.037,22.108a10.874,10.874,0,0,1,2-.168,3.3,3.3,0,0,1,2.338.66,2.011,2.011,0,0,1,.637,1.535A2.123,2.123,0,0,1,37.492,26.2v.035a2.019,2.019,0,0,1,1.188,1.632,12.845,12.845,0,0,0,.623,2.219H38.225a10.391,10.391,0,0,1-.541-1.932c-.241-1.115-.672-1.535-1.62-1.57h-.982v3.5H34.037Zm1.045,3.682h1.066c1.116,0,1.825-.612,1.825-1.535,0-1.044-.756-1.5-1.86-1.511a4.3,4.3,0,0,0-1.031.1Z" fill="#606060"/>
      <path id="Path_131" data-name="Path 131" d="M40.494,22.107a14.929,14.929,0,0,1,2.219-.168,4.627,4.627,0,0,1,3.273,1.007,3.722,3.722,0,0,1,1.141,2.9,4.273,4.273,0,0,1-1.164,3.142,4.977,4.977,0,0,1-3.574,1.163,16.831,16.831,0,0,1-1.9-.095Zm1.043,7.148a6.6,6.6,0,0,0,1.057.06,3.107,3.107,0,0,0,3.441-3.43c.012-1.907-1.068-3.118-3.273-3.118a5.928,5.928,0,0,0-1.225.108Z" fill="#606060"/>
    </g>
  </g>
</svg>
